<?xml version="1.0" encoding="UTF-8"?>
<svg width="24px" height="24px" viewBox="0 0 24 24" version="1.1" xmlns="http://www.w3.org/2000/svg">
    <path d="M12,2C6.477,2 2,6.477 2,12C2,16.418 4.865,20.166 8.839,21.489C9.339,21.581 9.521,21.27 9.521,21.001C9.521,20.767 9.512,19.999 9.508,19.131C6.726,19.79 6.139,17.5 6.139,17.5C5.686,16.288 5.029,15.941 5.029,15.941C4.121,15.15 5.097,15.161 5.097,15.161C6.101,15.234 6.629,16.201 6.629,16.201C7.521,17.8 9.015,17.35 9.52,17.111C9.631,16.363 9.889,15.89 10.176,15.623C7.955,15.369 5.62,14.459 5.62,10.919C5.62,9.76 6.009,8.79 6.649,8.031C6.546,7.752 6.203,6.88 6.747,5.768C6.747,5.768 7.586,5.504 9.496,6.682C10.29,6.463 11.135,6.353 11.98,6.349C12.825,6.353 13.67,6.463 14.464,6.682C16.374,5.504 17.213,5.768 17.213,5.768C17.757,6.88 17.414,7.752 17.311,8.031C17.951,8.79 18.34,9.76 18.34,10.919C18.34,14.467 16.004,15.367 13.78,15.617C14.136,15.937 14.458,16.556 14.458,17.508C14.458,18.84 14.446,19.965 14.446,21.001C14.446,21.27 14.628,21.581 15.128,21.489C19.135,20.166 22,16.418 22,12C22,6.477 17.523,2 12,2Z" fill="#000"/>
</svg>